<?xml version="1.0" encoding="UTF-8" standalone="no"?>
<!-- Created with Inkscape (http://www.inkscape.org/) -->

<svg
   xmlns:dc="http://purl.org/dc/elements/1.1/"
   xmlns:cc="http://creativecommons.org/ns#"
   xmlns:rdf="http://www.w3.org/1999/02/22-rdf-syntax-ns#"
   xmlns:svg="http://www.w3.org/2000/svg"
   xmlns="http://www.w3.org/2000/svg"
   xmlns:sodipodi="http://sodipodi.sourceforge.net/DTD/sodipodi-0.dtd"
   xmlns:inkscape="http://www.inkscape.org/namespaces/inkscape"
   version="1.1"
   width="209.78854"
   height="390.81244"
   viewBox="0 0 209.78854 390.81244"
   id="svg6313"
   sodipodi:docname="dwarf_walking_orange.svg"
   inkscape:version="0.92.1 r15371">
  <sodipodi:namedview
     pagecolor="#ffffff"
     bordercolor="#666666"
     borderopacity="1"
     objecttolerance="10"
     gridtolerance="10"
     guidetolerance="10"
     inkscape:pageopacity="0"
     inkscape:pageshadow="2"
     inkscape:window-width="722"
     inkscape:window-height="480"
     id="namedview7"
     showgrid="false"
     inkscape:zoom="0.60387024"
     inkscape:cx="104.89427"
     inkscape:cy="195.40622"
     inkscape:window-x="75"
     inkscape:window-y="34"
     inkscape:window-maximized="0"
     inkscape:current-layer="svg6313" />
  <defs
     id="defs6315" />
  <metadata
     id="metadata6318">
    <rdf:RDF>
      <cc:Work
         rdf:about="">
        <dc:format>image/svg+xml</dc:format>
        <dc:type
           rdf:resource="http://purl.org/dc/dcmitype/StillImage" />
        <dc:title></dc:title>
      </cc:Work>
    </rdf:RDF>
  </metadata>
  <g
     transform="translate(-1186.2398,-903.66317)"
     id="layer1"
     style="fill:#ff8c00;fill-opacity:1">
    <path
       d="m 1274.1773,903.66317 -28.5,5.78125 -10.75,6.21875 -1.4687,-2.5 c -0.8297,-1.4335 -2.6878,-1.92175 -4.125,-1.09375 l -13.375,7.75 c -1.4372,0.8278 -1.9547,2.6289 -1.125,4.0625 l 1.4375,2.5 -10.75,6.21875 -19.2813,21.6875 13.9688,24.21875 28.5,-5.84375 10.75,-6.21875 16,27.625 c -14.224,15.43888 -35.7035,45.04548 -38,63.12498 5.1573,7.256 16.6663,17.6792 25.0625,23.0937 -4.1975,7.9432 -5.8149,14.6789 -7.2813,26.375 3.3318,1.901 8.0602,3.6558 11.5,4.9375 -4.6799,16.7583 -7.2873,37.0254 -7.5625,57.4375 l 10.7188,0.4063 0,30.8125 -13.4063,10.625 -19.375,3.5 -12,9.2187 18.6563,61.5937 35.4375,8.7813 c 0,0 5.3412,-12.1893 4.625,-18.0625 -0.7163,-5.8732 -11.9063,-12.1875 -11.9063,-12.1875 l 3.5313,-14.6563 13.4687,-8.6874 5.75,-3.9375 8.3125,5.7812 11.9688,-8.3125 0.25,26 -9.5938,18.5312 -0.094,16.0313 99.4375,0 0,-15.8125 -4.4375,-9.0625 -23.9375,-4.7813 -15.9375,-12.8437 2.2813,-38.3125 12.2812,-7.5625 0,-29.0937 -8.5312,-20.0938 -2.5625,-20.25 34.875,54.5625 8.2187,-4.75 c 1.4372,-0.8277 1.9236,-2.6602 1.0938,-4.0937 l -67.9688,-119.0938 c 2.7088,-1.768 4.6417,-3.3193 5.0312,-4.3437 1.7155,-4.5149 -5.8165,-23.9741 -9.25,-29.9062 -2.4129,-4.1682 -6.0928,-6.176 -9.4062,-7.0938 1.1673,-0.5062 2.0502,-0.8428 2.5312,-0.8125 3.8145,0.2407 9.879,1.8494 13.3125,7.7813 3.4338,5.9321 10.9342,25.3915 9.2188,29.9062 l -4.375,7.0937 c 3.2093,23.2609 42.7608,54.7399 41.2812,69.875 0,0 16.8084,-16.0858 16.1563,-27.9687 -0.6518,-11.883 6.6044,-18.5113 6.3437,-26.4375 -0.2606,-7.9262 -3.5725,-19.1762 -3.75,-23.4063 -0.1775,-4.2301 3.9914,-7.965 3.8125,-12.6875 -0.3578,-9.4438 -6.4816,-8.8939 -6.4062,-16.9374 0.085,-9.1352 2.6875,-6.2338 2.6875,-13.5938 0,-7.3602 -8.125,-11.549 -8.125,-14.4687 l 0,-1.75003 c 4.8373,-0.1677 14.1191,-0.61845 15.2187,-1.71875 2.633,-2.6332 0.7813,-15.53145 0.7813,-15.53125 l -15.0625,-10.0625 -0.9375,-7.5625 2.3437,0 c 0.8698,0 1.5625,-0.6926 1.5625,-1.5625 l 0,-12.71875 c 0,-0.8701 -0.6927,-1.53125 -1.5625,-1.53125 l -5.625,0 c -5.4093,-13.86 -17.6486,-24.34235 -32.625,-27.09375 l 0,-4.21875 -15.875,0 0,4.21875 c -14.9764,2.7514 -27.2153,13.23375 -32.625,27.09375 l -6.9062,0 c -0.8698,0 -1.5625,0.66105 -1.5625,1.53125 l 0,12.71875 c 0,0.8699 0.6927,1.5627 1.5625,1.5625 l 1,0 -4.1875,15.53125 -2.625,-7.1875 c -3.7127,2.1075 -7.2889,4.4521 -10.6875,7 l -13.4688,-23.28125 10.7813,-6.1875 19.2812,-21.71875 -14,-24.15625 z"
       id="path6341"
       style="fill:#ff8c00;stroke:none;fill-opacity:1" />
  </g>
</svg>
