<?xml version="1.0" encoding="UTF-8" standalone="no"?>
<svg
   xmlns:dc="http://purl.org/dc/elements/1.1/"
   xmlns:cc="http://creativecommons.org/ns#"
   xmlns:rdf="http://www.w3.org/1999/02/22-rdf-syntax-ns#"
   xmlns:svg="http://www.w3.org/2000/svg"
   xmlns="http://www.w3.org/2000/svg"
   id="svg6313"
   viewBox="0 0 209.78854 390.81244"
   height="390.81244"
   width="209.78854"
   version="1.1">
  <defs
     id="defs6315" />
  <metadata
     id="metadata6318">
    <rdf:RDF>
      <cc:Work
         rdf:about="">
        <dc:format>image/svg+xml</dc:format>
        <dc:type
           rdf:resource="http://purl.org/dc/dcmitype/StillImage" />
        <dc:title></dc:title>
      </cc:Work>
    </rdf:RDF>
  </metadata>
  <g
     style="fill:#ff8c00;fill-opacity:1"
     id="layer1"
     transform="translate(-1186.2398,-903.66317)">
    <path
       style="fill:#ff8c00;stroke:none;fill-opacity:1"
       id="path6341"
       d="m 1274.1773,903.66317 -28.5,5.78125 -10.75,6.21875 -1.4687,-2.5 c -0.8297,-1.4335 -2.6878,-1.92175 -4.125,-1.09375 l -13.375,7.75 c -1.4372,0.8278 -1.9547,2.6289 -1.125,4.0625 l 1.4375,2.5 -10.75,6.21875 -19.2813,21.6875 13.9688,24.21875 28.5,-5.84375 10.75,-6.21875 16,27.625 c -14.224,15.43888 -35.7035,45.04548 -38,63.12498 5.1573,7.256 16.6663,17.6792 25.0625,23.0937 -4.1975,7.9432 -5.8149,14.6789 -7.2813,26.375 3.3318,1.901 8.0602,3.6558 11.5,4.9375 -4.6799,16.7583 -7.2873,37.0254 -7.5625,57.4375 l 10.7188,0.4063 0,30.8125 -13.4063,10.625 -19.375,3.5 -12,9.2187 18.6563,61.5937 35.4375,8.7813 c 0,0 5.3412,-12.1893 4.625,-18.0625 -0.7163,-5.8732 -11.9063,-12.1875 -11.9063,-12.1875 l 3.5313,-14.6563 13.4687,-8.6874 5.75,-3.9375 8.3125,5.7812 11.9688,-8.3125 0.25,26 -9.5938,18.5312 -0.094,16.0313 99.4375,0 0,-15.8125 -4.4375,-9.0625 -23.9375,-4.7813 -15.9375,-12.8437 2.2813,-38.3125 12.2812,-7.5625 0,-29.0937 -8.5312,-20.0938 -2.5625,-20.25 34.875,54.5625 8.2187,-4.75 c 1.4372,-0.8277 1.9236,-2.6602 1.0938,-4.0937 l -67.9688,-119.0938 c 2.7088,-1.768 4.6417,-3.3193 5.0312,-4.3437 1.7155,-4.5149 -5.8165,-23.9741 -9.25,-29.9062 -2.4129,-4.1682 -6.0928,-6.176 -9.4062,-7.0938 1.1673,-0.5062 2.0502,-0.8428 2.5312,-0.8125 3.8145,0.2407 9.879,1.8494 13.3125,7.7813 3.4338,5.9321 10.9342,25.3915 9.2188,29.9062 l -4.375,7.0937 c 3.2093,23.2609 42.7608,54.7399 41.2812,69.875 0,0 16.8084,-16.0858 16.1563,-27.9687 -0.6518,-11.883 6.6044,-18.5113 6.3437,-26.4375 -0.2606,-7.9262 -3.5725,-19.1762 -3.75,-23.4063 -0.1775,-4.2301 3.9914,-7.965 3.8125,-12.6875 -0.3578,-9.4438 -6.4816,-8.8939 -6.4062,-16.9374 0.085,-9.1352 2.6875,-6.2338 2.6875,-13.5938 0,-7.3602 -8.125,-11.549 -8.125,-14.4687 l 0,-1.75003 c 4.8373,-0.1677 14.1191,-0.61845 15.2187,-1.71875 2.633,-2.6332 0.7813,-15.53145 0.7813,-15.53125 l -15.0625,-10.0625 -0.9375,-7.5625 2.3437,0 c 0.8698,0 1.5625,-0.6926 1.5625,-1.5625 l 0,-12.71875 c 0,-0.8701 -0.6927,-1.53125 -1.5625,-1.53125 l -5.625,0 c -5.4093,-13.86 -17.6486,-24.34235 -32.625,-27.09375 l 0,-4.21875 -15.875,0 0,4.21875 c -14.9764,2.7514 -27.2153,13.23375 -32.625,27.09375 l -6.9062,0 c -0.8698,0 -1.5625,0.66105 -1.5625,1.53125 l 0,12.71875 c 0,0.8699 0.6927,1.5627 1.5625,1.5625 l 1,0 -4.1875,15.53125 -2.625,-7.1875 c -3.7127,2.1075 -7.2889,4.4521 -10.6875,7 l -13.4688,-23.28125 10.7813,-6.1875 19.2812,-21.71875 -14,-24.15625 z" />
  </g>
  <path
     id="path14"
     d="M 54.368361,385.34106 37.79014,381.20183 29.048512,351.97664 c -4.807895,-16.07385 -8.711893,-30.06823 -8.675549,-31.09861 0.137132,-3.88776 10.978026,-10.14215 19.646049,-11.33431 6.0231,-0.82839 10.922204,-2.85558 15.701207,-6.49698 l 6.946436,-5.29287 0.473963,-16.06695 0.473963,-16.06694 H 58.58666 c -4.895602,0 -5.027665,-0.20702 -5.01816,-7.86593 0.0089,-7.23737 3.262027,-31.78555 5.933128,-44.7727 1.02679,-4.99235 0.689979,-5.60516 -4.067687,-7.40098 -6.236795,-2.35413 -6.726159,-7.22797 -2.07697,-20.68565 l 3.002081,-8.6899 -8.920069,-6.88179 c -9.361579,-7.2224 -15.408048,-14.40737 -15.408048,-18.30924 0,-7.3923 27.376514,-52.215312 34.629224,-56.697734 3.133224,-1.936439 2.009013,-5.682648 -5.733588,-19.106032 L 53.39054,62.144772 47.938137,65.361768 c -2.99882,1.769347 -11.575365,4.44508 -19.058986,5.946073 C 13.202976,74.452019 14.046072,74.864256 5.7219654,59.984983 L 0.462762,50.584202 9.7503362,40.113164 C 14.858502,34.354094 21.573893,28.151742 24.673428,26.330158 28.549011,24.052495 30.037125,22.148772 29.438545,20.234215 28.156591,16.133892 42.872699,7.6771698 46.906337,10.196218 49.10918,11.571916 50.922745,11.313127 54.573193,9.1021857 57.203015,7.509401 64.198441,5.2778538 70.118587,4.1431918 76.038734,3.00853 82.434192,1.7117539 84.330717,1.2614673 87.180697,0.58480455 88.970391,2.5006835 94.646304,12.304368 l 6.867366,11.861604 -9.386003,10.624756 C 86.965369,40.634343 80.222435,46.901866 77.14337,48.718559 l -5.598299,3.303078 5.34535,9.510056 c 8.096808,14.405247 7.755912,14.152597 13.939417,10.330981 l 5.391162,-3.331921 1.170477,3.739476 c 1.029002,3.287496 1.452217,2.847923 3.501473,-3.636821 1.54725,-4.896162 1.77662,-7.930683 0.68219,-9.025118 -0.90686,-0.906851 -1.648824,-4.480554 -1.648824,-7.941562 0,-5.48706 0.494344,-6.292743 3.861074,-6.292743 2.79725,0 5.29291,-2.209715 9.05787,-8.020026 5.56116,-8.582331 14.78767,-15.894612 22.40448,-17.756207 2.57823,-0.630137 5.07984,-2.167603 5.55912,-3.416592 1.00073,-2.607847 15.42094,-3.245007 15.42094,-0.681377 0,0.874232 2.98642,2.484265 6.63649,3.57785 7.98078,2.391099 18.63643,11.177175 24.15203,19.914459 2.21579,3.510041 5.13715,6.381893 6.49191,6.381893 1.81537,0 2.46321,1.959914 2.46321,7.451932 0,4.098563 -0.74519,7.451932 -1.65598,7.451932 -0.9108,0 -1.65599,1.484659 -1.65599,3.299242 0,2.139547 2.91983,5.19549 8.3067,8.693921 8.12059,5.273812 8.29683,5.561638 7.86593,12.846611 -0.43895,7.421213 -0.46965,7.455787 -7.44796,8.387168 -3.85394,0.514378 -7.43043,1.358503 -7.94776,1.87583 -0.51733,0.517328 0.95921,3.740129 3.2812,7.161779 4.7869,7.05388 5.04406,9.04594 2.18757,16.94544 -1.80259,4.98493 -1.61399,6.35585 1.65599,12.03754 4.11283,7.14624 4.60299,11.71993 1.81438,16.9305 -1.41104,2.63653 -1.34761,6.90084 0.25594,17.209 1.99303,12.81171 1.89953,14.41152 -1.4361,24.57258 -1.96237,5.97776 -3.56793,12.753 -3.56793,15.05608 0,4.7545 -3.56751,12.29867 -9.51716,20.12588 l -4.05834,5.33905 -3.56216,-7.02219 c -1.95918,-3.86219 -9.7402,-14.99672 -17.29116,-24.74338 -7.55096,-9.74665 -15.61096,-21.83191 -17.91111,-26.8561 -4.07787,-8.90724 -4.10946,-9.25789 -1.26743,-14.06906 2.78685,-4.71776 2.78298,-5.35438 -0.0883,-14.51635 -4.93374,-15.74287 -8.80489,-21.99275 -15.30423,-24.70835 -7.67911,-3.20854 -8.42328,-2.10838 -2.548,3.7669 5.07496,5.07495 11.93247,21.16849 11.93247,28.00368 0,2.25517 -0.84244,5.44926 -1.87208,7.09799 -1.57917,2.52864 3.44139,12.30642 32.08693,62.49096 34.93365,61.20075 35.01663,61.39736 27.59239,65.3707 -2.48839,1.33174 -5.34552,-2.26997 -19.77642,-24.93019 -9.27731,-14.56775 -17.21197,-26.48682 -17.63258,-26.48682 -1.9384,0 1.98934,19.97615 5.49434,27.94381 3.23709,7.35858 3.91515,11.68714 3.91515,24.993 v 16.09303 l -5.58083,3.00548 c -5.25324,2.82905 -5.64138,3.64631 -6.61217,13.92264 -0.56724,6.00443 -1.00843,15.01572 -0.98042,20.02508 0.0491,8.78488 0.31229,9.31347 7.42063,14.90386 5.14087,4.04306 11.00093,6.65544 19.37636,8.63785 6.75786,1.59957 12.91975,4.09068 14.0954,5.69846 1.14882,1.57112 2.08876,6.81269 2.08876,11.64797 v 8.79141 h -48.8516 -48.851554 v -7.49916 c 0,-5.04142 1.628174,-10.72456 4.967954,-17.34062 4.20854,-8.33707 4.96796,-11.74721 4.96796,-22.30856 0,-6.85693 -0.48856,-12.46712 -1.08568,-12.46712 -0.59713,0 -3.4828,1.82837 -6.41262,4.06306 -4.73273,3.60983 -5.673765,3.80042 -8.436232,1.70864 -4.565269,-3.45688 -6.381878,-3.06946 -16.211968,3.45734 -7.353343,4.88235 -9.21688,7.11917 -10.656606,12.79125 -1.686758,6.64531 -1.554606,7.04842 3.969276,12.1081 3.440508,3.15139 5.710452,6.79234 5.704892,9.15056 -0.01242,5.30245 -3.178995,16.37713 -4.622561,16.16723 -0.640284,-0.0931 -8.62435,-2.03192 -17.74237,-4.30851 z"
     style="fill:#808080;stroke-width:1.65598488" />
</svg>
