<?xml version="1.0" encoding="UTF-8" standalone="no"?>
<svg
   xmlns:dc="http://purl.org/dc/elements/1.1/"
   xmlns:cc="http://creativecommons.org/ns#"
   xmlns:rdf="http://www.w3.org/1999/02/22-rdf-syntax-ns#"
   xmlns:svg="http://www.w3.org/2000/svg"
   xmlns="http://www.w3.org/2000/svg"
   xmlns:xlink="http://www.w3.org/1999/xlink"
   id="svg10"
   version="1.1"
   viewBox="0 0 18.479231 18.479231"
   height="18.479231"
   width="18.479231">
  <metadata
     id="metadata14">
    <rdf:RDF>
      <cc:Work
         rdf:about="">
        <dc:format>image/svg+xml</dc:format>
        <dc:type
           rdf:resource="http://purl.org/dc/dcmitype/StillImage" />
        <dc:title></dc:title>
      </cc:Work>
    </rdf:RDF>
  </metadata>
  <defs
     id="defs3">
    <path
       d="M 0,0 H 48 V 48 H 0 Z"
       id="a" />
    <clipPath
       clipPathUnits="userSpaceOnUse"
       id="clipPath28-3">
      <path
         d="M 12.496,12.496 H 624.779 V 871.394 H 12.496 Z"
         id="path26-6" />
    </clipPath>
  </defs>
  <clipPath
     id="b">
    <use
       height="100%"
       width="100%"
       y="0"
       x="0"
       style="overflow:visible"
       id="use5"
       overflow="visible"
       xlink:href="#a" />
  </clipPath>
  <g
     id="g849"
     transform="matrix(0.26097763,0,0,-0.26097763,-21.994594,44.671768)">
    <path
       d="m 152.8157,132.7941 c -2.097,0 -3.7975,-1.7005 -3.7975,-3.7976 v -7.7924 -3.4078 c 0,-3.4237 -1.9865,-6.3848 -4.8694,-7.7925 -1.1469,-0.5601 -2.4358,-0.8745 -3.7976,-0.8745 v 4.8694 c 2.0968,0 3.7976,1.7005 3.7976,3.7976 v 4.3843 6.8159 c 0,2.4466 1.0143,4.6565 2.6447,6.2323 l 6e-4,5e-4 -6e-4,6e-4 c -1.6304,1.5758 -2.6447,3.7857 -2.6447,6.2322 v 6.8159 4.3844 c 0,2.0968 -1.7008,3.7976 -3.7976,3.7976 v 4.8693 c 1.3618,0 2.6507,-0.3143 3.7976,-0.8745 2.8829,-1.4077 4.8694,-4.3687 4.8694,-7.7924 v -3.4078 -7.7925 c 0,-2.097 1.7005,-3.7978 3.7975,-3.7978 l 0.2124,-9e-4 h 0.004 l 0.023,3e-4 h 0.004 0.004 2.0223 v -4.8688 h -2.0223 -0.004 -0.004 l -0.023,3e-4 h -0.004 l -0.2124,-0.001 z"
       style="fill:#2ec2e6;fill-opacity:1;fill-rule:evenodd;stroke:none"
       id="path851" />
    <path
       d="m 86.5468,132.7935 c 2.0971,0 3.7976,-1.7005 3.7976,-3.7973 v -7.7924 -3.4081 c 0,-3.424 1.9865,-6.3845 4.8694,-7.7927 1.1469,-0.5602 2.4358,-0.8742 3.7975,-0.8742 v 4.869 c -2.0967,0 -3.7975,1.7008 -3.7975,3.7979 v 4.3843 6.8162 c 0,2.446 -1.0143,4.6559 -2.6448,6.232 l -5e-4,6e-4 5e-4,5e-4 c 1.6305,1.5758 2.6448,3.786 2.6448,6.232 v 6.8159 4.3846 c 0,2.0971 1.7008,3.7976 3.7975,3.7976 v 4.8696 c -1.3617,0 -2.6506,-0.3146 -3.7975,-0.8747 -2.8829,-1.408 -4.8694,-4.3688 -4.8694,-7.7925 v -3.4078 -7.7927 c 0,-2.0968 -1.7005,-3.7976 -3.7976,-3.7976 l -0.2123,-6e-4 h -0.0039 l -0.023,3e-4 h -0.004 -0.0037 -2.0222 v -4.8693 h 2.0222 0.0037 0.004 l 0.023,3e-4 h 0.0039 z"
       style="fill:#2ec2e6;fill-opacity:1;fill-rule:evenodd;stroke:none"
       id="path853" />
    <path
       d="m 128.0996,150.3896 c 8.3594,-4.8969 11.1762,-15.6819 6.2802,-24.0415 -1.5115,-2.5801 -3.5839,-4.6324 -5.9729,-6.0925 l 1.823,-2.9707 c 2.8587,1.7504 5.3396,4.2106 7.1521,7.3046 5.8748,10.0298 2.5058,22.9272 -7.524,28.8022 -1.5543,0.9105 -3.1771,1.5988 -4.8323,2.0747 l -0.9603,-3.3468 c 1.3824,-0.3966 2.7374,-0.9706 4.0342,-1.73 z m -9.6364,-32.7121 c -2.7765,0.1151 -5.5644,0.8912 -8.1249,2.3907 -7.2317,4.2364 -10.3156,12.8792 -7.8457,20.5467 l -3.3143,1.0672 c -2.9684,-9.1916 0.7231,-19.533 9.4014,-24.6163 3.0702,-1.7986 6.4094,-2.7307 9.7336,-2.8707 z m 7.2839,6.9123 c -2.1174,-1.2946 -4.585,-1.9347 -7.0653,-1.8318 -1.1424,0.0474 -2.2876,0.252 -3.4027,0.6234 l -0.961,-2.8908 c 1.3876,-0.4626 2.812,-0.7186 4.2327,-0.7787 3.087,-0.1298 6.1566,0.6661 8.7911,2.2793 0.7362,0.451 1.4386,0.9655 2.0979,1.5418 l -2.0052,2.2947 c -0.5303,-0.4627 -1.095,-0.876 -1.6875,-1.2379 z m -18.4127,14.4657 c 0.2739,0.8493 0.6432,1.6818 1.1126,2.4829 0.6013,1.0261 1.3272,1.9349 2.1478,2.7181 l -2.1053,2.2034 c -1.019,-0.9745 -1.9216,-2.1053 -2.6696,-3.3823 -0.584,-0.9969 -1.0443,-2.0324 -1.3853,-3.0883 -1.247,-3.8617 -0.9006,-7.9983 0.8113,-11.5368 l 2.7436,1.3306 c -1.3745,2.8452 -1.6543,6.171 -0.6551,9.2724 z m 12.4807,-1.7484 c -0.491,0.7002 -0.5601,1.6503 -0.0998,2.4361 0.2554,0.4363 0.635,0.7549 1.0678,0.9377 0.2449,0.1032 0.5071,0.163 0.7733,0.1758 -0.2163,0.0901 -0.4354,0.1669 -0.6568,0.2304 -0.6165,0.1775 -1.2484,0.2529 -1.8728,0.2325 -0.8028,-0.0261 -1.5934,-0.2107 -2.3236,-0.5409 -0.6177,-0.2792 -1.1922,-0.6627 -1.6945,-1.1429 -0.4,-0.3824 -0.7541,-0.826 -1.0477,-1.3272 -0.2291,-0.3912 -0.4099,-0.7974 -0.5437,-1.2118 -0.4893,-1.5151 -0.3535,-3.1385 0.3183,-4.5269 0.5077,-1.05 1.3218,-1.9656 2.4032,-2.5991 0.3739,-0.2191 0.7617,-0.3938 1.1569,-0.5256 0.5445,-0.1814 1.1035,-0.2817 1.6608,-0.3053 1.2115,-0.051 2.4159,0.2614 3.4497,0.8944 0.2892,0.1768 0.5647,0.379 0.8235,0.6049 0.4822,0.4215 0.9054,0.9266 1.247,1.5094 0.3206,0.5477 0.5462,1.1245 0.6817,1.7122 0.4354,1.8892 -0.0618,3.8851 -1.3244,5.3489 0.1585,-0.568 0.0956,-1.1973 -0.2262,-1.7467 -0.6292,-1.0746 -2.0114,-1.4354 -3.086,-0.8059 -0.2889,0.1693 -0.5264,0.3926 -0.7067,0.65 z m 2.3006,8.0184 c -1.0624,0.3056 -2.1512,0.4357 -3.2275,0.4008 -1.3836,-0.0451 -2.7462,-0.3628 -4.0051,-0.932 -1.0644,-0.4814 -2.0548,-1.1427 -2.9203,-1.9701 -0.6894,-0.6591 -1.2997,-1.4239 -1.8054,-2.2876 -0.3948,-0.674 -0.7061,-1.3742 -0.9368,-2.0883 -0.8433,-2.6115 -0.6092,-5.409 0.5485,-7.802 0.8751,-1.8091 2.2779,-3.3872 4.142,-4.4791 0.6443,-0.3772 1.3121,-0.6783 1.9933,-0.9056 0.9383,-0.313 1.9018,-0.4862 2.8624,-0.5267 2.0878,-0.0879 4.1638,0.4504 5.9454,1.5415 0.4981,0.305 0.9732,0.6531 1.4188,1.0428 0.8311,0.7263 1.561,1.5971 2.1495,2.6017 0.5527,0.9434 0.9414,1.9377 1.1746,2.95 1.0044,4.3557 -0.8679,9.0408 -4.9283,11.4194 -0.7755,0.4541 -1.5854,0.7976 -2.4111,1.0352 z m 1.0925,-3.2868 c 3.0461,-1.7847 4.454,-5.3096 3.7023,-8.5816 -0.1749,-0.7611 -0.4666,-1.5086 -0.8816,-2.2173 -0.4422,-0.7545 -0.991,-1.4088 -1.6163,-1.9544 -0.3351,-0.2926 -0.6922,-0.5537 -1.0667,-0.7827 -1.3388,-0.8184 -2.8984,-1.2229 -4.4665,-1.1579 -0.7223,0.03 -1.4463,0.1595 -2.1512,0.394 -0.5123,0.1706 -1.0143,0.3965 -1.4984,0.68 -1.3992,0.8198 -2.4529,2.0064 -3.1102,3.3673 -0.8688,1.7986 -1.0457,3.9013 -0.4144,5.862 0.1732,0.5369 0.4067,1.0633 0.7032,1.5699 0.3802,0.6488 0.8394,1.2231 1.3581,1.7183 0.6506,0.6208 1.3949,1.1169 2.1952,1.4783 0.9456,0.4272 1.9695,0.6661 3.0087,0.7004 0.809,0.027 1.6273,-0.0703 2.4253,-0.299 0.6211,-0.178 1.2299,-0.436 1.8125,-0.7773 z m -4.4785,8.7126 c -2.0458,-0.0666 -4.0606,-0.5366 -5.9219,-1.3782 l 1.2592,-2.778 c 1.4958,0.6758 3.1153,1.0537 4.7588,1.1081 1.2796,0.0425 2.5741,-0.1114 3.8364,-0.4734 0.9822,-0.2818 1.9451,-0.6894 2.8664,-1.2291 4.8186,-2.8227 7.0458,-8.3985 5.8569,-13.5743 l 2.9693,-0.684 c 1.4848,6.4406 -1.2838,13.3685 -7.2873,16.8854 -1.1466,0.6716 -2.3439,1.1795 -3.5648,1.5308 -1.5713,0.4518 -3.1813,0.6443 -4.773,0.5927 z m -11.649,-2.8168 c 3.1595,3.0161 7.314,4.7095 11.5849,4.8509 l -0.1097,3.4844 c -5.1185,-0.1664 -10.0944,-2.1966 -13.8809,-5.817 z"
       style="fill:#003857;fill-opacity:1;fill-rule:evenodd;stroke:none"
       id="path859" />
  </g>
  <path
     id="path16"
     d="M 3.4389381,16.129181 C 2.7446426,15.991531 2.2088537,15.598075 1.8613542,14.970687 L 1.6479173,14.58534 1.6119628,12.640347 C 1.5802472,10.924671 1.5607107,10.672042 1.44626,10.497617 1.2345161,10.174916 0.909001,10.01968 0.44343885,10.019377 L 0.02996117,10.019108 V 9.3719254 8.7247429 h 0.4618923 c 0.39703626,0 0.49433108,-0.027295 0.69291483,-0.1943927 0.4004441,-0.3369514 0.4271945,-0.486568 0.4271945,-2.3893301 0,-1.5663831 0.013661,-1.7619452 0.1482041,-2.121543 C 2.0282368,3.3029959 2.7533146,2.7212691 3.486519,2.6344319 l 0.3546278,-0.042 V 3.204687 c 0,0.6118067 -1.438e-4,0.6122848 -0.1996589,0.6521873 C 3.5316755,3.8788367 3.3497791,3.9692125 3.2372736,4.0577094 2.8673709,4.348675 2.8344185,4.5380043 2.8344185,6.3723339 c 0,1.8613267 -0.050137,2.174149 -0.4332144,2.7029719 L 2.1822995,9.3774948 2.403816,9.685951 c 0.3858009,0.537218 0.4306025,0.820339 0.4306025,2.721159 0,1.882431 0.014614,1.960265 0.4343895,2.313482 0.1231052,0.103587 0.3022425,0.188339 0.3980831,0.188339 0.1714937,0 0.1742557,0.01026 0.1742557,0.647182 0,0.355951 -0.024269,0.643638 -0.053932,0.639304 -0.029663,-0.0043 -0.1863871,-0.03414 -0.3482768,-0.06624 z"
     style="fill:#e6e6e6;stroke-width:0.07190916" />
  <path
     id="path18"
     d="m 14.627521,15.554316 c 0,-0.621209 0.0061,-0.645403 0.161796,-0.645859 0.19887,-5.75e-4 0.523837,-0.208026 0.687097,-0.438611 0.104846,-0.148083 0.127047,-0.443512 0.158844,-2.11369 0.03553,-1.866125 0.04357,-1.954118 0.20714,-2.265139 0.0936,-0.1779752 0.232026,-0.4113882 0.307618,-0.5186955 L 16.287457,9.3772172 16.038906,9.0158876 C 15.902203,8.8171563 15.755231,8.4907816 15.712302,8.2906106 15.668925,8.0883514 15.63413,7.1854784 15.633981,6.2583146 15.633733,4.7204081 15.62254,4.5716421 15.49082,4.355604 15.337052,4.1034053 14.957593,3.8356249 14.753362,3.8351886 14.643405,3.8349537 14.627521,3.7577718 14.627521,3.2236919 V 2.612464 h 0.276151 c 0.360625,0 1.089083,0.3653385 1.372826,0.688504 0.120878,0.1376726 0.292632,0.3869404 0.381675,0.5539285 0.153341,0.2875688 0.163815,0.4062237 0.198192,2.2451619 0.0389,2.0811624 0.04356,2.1071977 0.435692,2.4371554 0.18956,0.1595048 0.29189,0.1875291 0.684758,0.1875291 h 0.461892 v 0.6471825 0.6471826 l -0.413478,2.87e-4 c -0.465594,2.88e-4 -0.791107,0.155554 -1.002821,0.478288 -0.114449,0.174465 -0.133988,0.427126 -0.165703,2.142731 -0.03592,1.943028 -0.03615,1.945308 -0.230301,2.31336 -0.345659,0.655253 -0.940544,1.061419 -1.765178,1.205198 l -0.233705,0.04073 z"
     style="fill:#e6e6e6;stroke-width:0.07190916" />
  <path
     id="path24"
     d="m 11.774524,13.669011 -0.220745,-0.366589 0.418799,-0.314817 c 0.727827,-0.547117 1.358546,-1.526107 1.609488,-2.498218 C 13.725373,9.9342409 13.724903,8.8067472 13.581135,8.2544641 13.24843,6.976384 12.324057,5.8326152 11.174602,5.2767517 10.843315,5.1165448 10.53342,4.9854664 10.485947,4.9854664 c -0.06274,0 -0.05238,-0.112906 0.03796,-0.4134777 0.149814,-0.4984605 0.143258,-0.4982084 1.079449,-0.041502 1.214158,0.5923089 2.245357,1.7922028 2.708487,3.1515728 0.279503,0.8203928 0.32661,2.1193386 0.108444,2.9902925 -0.327225,1.306333 -1.113946,2.451584 -2.205505,3.21061 l -0.219512,0.152639 z"
     style="fill:#999999;stroke-width:0.07190916" />
  <path
     id="path26"
     d="m 12.569704,10.156865 -0.224134,-0.065 0.03547,-0.4957932 C 12.474561,8.289051 11.74573,7.0363163 10.547168,6.443955 10.056973,6.2016872 9.9390755,6.1735864 9.3061884,6.1481662 8.7961952,6.1276822 8.4950262,6.1525894 8.1937777,6.2401647 7.9665808,6.3062127 7.7751212,6.3502471 7.7683118,6.3380189 7.6392559,6.1062613 7.5155214,5.7513958 7.5463662,5.7014879 7.5684956,5.6656817 7.7544483,5.5865406 7.9595944,5.5256188 10.127845,4.8817174 12.427891,6.1760541 13.011338,8.3684577 c 0.104224,0.3916393 0.145044,1.5373764 0.06244,1.7526323 -0.04809,0.125329 -0.166336,0.133721 -0.504077,0.03577 z"
     style="fill:#999999;stroke-width:0.07190916" />
  <path
     id="path28"
     d="M 8.4969719,12.026404 C 7.740926,11.848217 7.0249247,11.265668 6.6676732,10.53806 6.4854063,10.16684 6.4658313,10.053746 6.4658313,9.3719254 c 0,-0.7071425 0.014355,-0.7824939 0.2262549,-1.1876699 C 6.9575583,7.6766445 7.5241186,7.1194603 7.9797287,6.9179223 9.3643397,6.305443 10.94951,6.9017181 11.594389,8.277607 c 0.166642,0.3555416 0.19272,0.5036212 0.19272,1.0943184 0,0.6006697 -0.02495,0.7371516 -0.206678,1.1305826 -0.227546,0.49262 -0.769221,1.060901 -1.236781,1.297528 -0.5383592,0.272458 -1.2703833,0.36219 -1.8466781,0.226368 z M 10.094251,11.200298 C 11.727767,10.311227 11.464722,7.9038413 9.6772838,7.384219 9.1811619,7.2399924 8.6907564,7.2909025 8.1829494,7.5393493 6.8653587,8.1839864 6.6529312,9.9642504 7.7756764,10.95253 c 0.4202258,0.369898 0.8516656,0.510739 1.4658181,0.478508 0.3534821,-0.01855 0.5710655,-0.07742 0.8527565,-0.23074 z"
     style="fill:#999999;stroke-width:0.07190916" />
  <path
     id="path30"
     d="M 8.4792878,10.787443 C 7.8588403,10.487133 7.5804233,10.041768 7.5804233,9.3495905 c 0,-0.9254661 0.9033734,-1.6917969 1.7861997,-1.5152316 l 0.2189104,0.043782 -0.2115543,0.1780112 c -0.4211457,0.3543708 -0.1703775,1.0281366 0.3826611,1.0281366 0.2809568,0 0.4284638,-0.099417 0.5732368,-0.3863535 l 0.104231,-0.2065805 0.119204,0.2979222 c 0.158846,0.3969941 0.148083,0.8356126 -0.03015,1.2285381 -0.184975,0.407796 -0.320239,0.556282 -0.6688027,0.734179 -0.4478128,0.22855 -0.9494082,0.241481 -1.3750755,0.03545 z"
     style="fill:#999999;stroke-width:0.07190916" />
  <path
     id="path32"
     d="m 8.2276058,13.316834 c -0.1779752,-0.04189 -0.3315867,-0.08362 -0.3413589,-0.09275 -0.00977,-0.0091 0.034469,-0.169894 0.098314,-0.357269 l 0.1160822,-0.340683 0.2971859,0.05883 c 0.8404104,0.166361 1.865581,-0.027 2.533667,-0.477888 0.177928,-0.120081 0.332646,-0.21833 0.343819,-0.21833 0.01117,0 0.124185,0.129252 0.251137,0.287227 l 0.230822,0.287228 -0.436472,0.282105 c -0.648016,0.418833 -1.204729,0.587124 -2.0505139,0.619858 -0.3955004,0.01531 -0.8647077,-0.0064 -1.0426828,-0.04833 z"
     style="fill:#999999;stroke-width:0.07190916" />
  <path
     id="path34"
     d="M 5.4310932,10.968626 C 5.0918784,10.334043 5.0152064,9.0264824 5.2700017,8.2213787 5.4350661,7.6998069 5.8319453,6.9946836 6.1307879,6.6920455 L 6.3273058,6.4930317 6.5693041,6.7427106 C 6.8033013,6.9841345 6.807307,6.9978469 6.6904587,7.1574518 5.9028241,8.2332942 5.6744057,9.2032134 5.9651838,10.237142 6.1298823,10.822764 6.1309661,10.81798 5.8014471,10.9599 5.5155224,11.083043 5.492544,11.083585 5.4310932,10.968626 Z"
     style="fill:#999999;stroke-width:0.07190916" />
  <path
     id="path36"
     d="M 5.6305652,5.6882398 5.3750744,5.384285 5.7047253,5.109174 C 6.3712249,4.5529452 7.5593799,4.0683809 8.5691743,3.9409681 L 8.9466974,3.8933331 V 4.324788 4.756243 L 8.5691743,4.805793 C 7.7538833,4.9127998 6.5512611,5.4361426 6.1813377,5.8449033 5.9929497,6.0530697 5.9197151,6.0322385 5.6305652,5.6882398 Z"
     style="fill:#999999;stroke-width:0.07190916" />
  <path
     id="path38"
     d="M 8.0118783,14.725269 C 6.3637827,14.371541 5.0464977,13.372129 4.2816012,11.895142 3.9332446,11.222478 3.7912027,10.750852 3.692512,9.9391722 3.6149491,9.3012579 3.679583,8.4664884 3.845958,7.9573611 L 3.9204855,7.729298 4.2942938,7.8576389 c 0.4188489,0.1438048 0.4038085,0.089721 0.2656889,0.9554007 -0.2211895,1.3863284 0.394898,3.0362574 1.4961183,4.0067194 0.5760326,0.507634 1.4194213,0.919234 2.1892459,1.068419 l 0.628969,0.121888 2.373e-4,0.413478 c 2.301e-4,0.404568 -0.00403,0.413355 -0.197514,0.407761 -0.1087626,-0.0031 -0.4080845,-0.05086 -0.6651598,-0.106036 z"
     style="fill:#999999;stroke-width:0.07190916" />
</svg>
