<?xml version="1.0" encoding="UTF-8" standalone="no"?>
<svg
   xmlns:dc="http://purl.org/dc/elements/1.1/"
   xmlns:cc="http://creativecommons.org/ns#"
   xmlns:rdf="http://www.w3.org/1999/02/22-rdf-syntax-ns#"
   xmlns:svg="http://www.w3.org/2000/svg"
   xmlns="http://www.w3.org/2000/svg"
   xmlns:xlink="http://www.w3.org/1999/xlink"
   xmlns:sodipodi="http://sodipodi.sourceforge.net/DTD/sodipodi-0.dtd"
   xmlns:inkscape="http://www.inkscape.org/namespaces/inkscape"
   width="18.479231"
   height="18.479231"
   viewBox="0 0 18.479231 18.479231"
   version="1.1"
   id="svg10"
   sodipodi:docname="empri_small.svg"
   inkscape:version="0.92.5 (2060ec1f9f, 2020-04-08)">
  <metadata
     id="metadata14">
    <rdf:RDF>
      <cc:Work
         rdf:about="">
        <dc:format>image/svg+xml</dc:format>
        <dc:type
           rdf:resource="http://purl.org/dc/dcmitype/StillImage" />
        <dc:title></dc:title>
      </cc:Work>
    </rdf:RDF>
  </metadata>
  <sodipodi:namedview
     pagecolor="#ffffff"
     bordercolor="#666666"
     borderopacity="1"
     objecttolerance="10"
     gridtolerance="10"
     guidetolerance="10"
     inkscape:pageopacity="0"
     inkscape:pageshadow="2"
     inkscape:window-width="3368"
     inkscape:window-height="1376"
     id="namedview12"
     showgrid="true"
     fit-margin-top="0"
     fit-margin-left="0"
     fit-margin-right="0"
     fit-margin-bottom="0"
     inkscape:zoom="3.4766084"
     inkscape:cx="-132.79869"
     inkscape:cy="-6.2859473"
     inkscape:window-x="72"
     inkscape:window-y="27"
     inkscape:window-maximized="1"
     inkscape:current-layer="svg10">
    <inkscape:grid
       type="xygrid"
       id="grid818"
       originx="-16.688518"
       originy="-15.768997" />
  </sodipodi:namedview>
  <defs
     id="defs3">
    <path
       id="a"
       d="M 0,0 H 48 V 48 H 0 Z"
       inkscape:connector-curvature="0" />
    <clipPath
       id="clipPath28-3"
       clipPathUnits="userSpaceOnUse">
      <path
         inkscape:connector-curvature="0"
         id="path26-6"
         d="M 12.496,12.496 H 624.779 V 871.394 H 12.496 Z" />
    </clipPath>
  </defs>
  <clipPath
     id="b">
    <use
       xlink:href="#a"
       overflow="visible"
       id="use5"
       style="overflow:visible"
       x="0"
       y="0"
       width="100%"
       height="100%" />
  </clipPath>
  <g
     transform="matrix(0.26097763,0,0,-0.26097763,-21.994594,44.671768)"
     inkscape:label="LOGO"
     id="g849">
    <path
       inkscape:connector-curvature="0"
       id="path851"
       style="fill:#2ec2e6;fill-opacity:1;fill-rule:evenodd;stroke:none"
       d="m 152.8157,132.7941 c -2.097,0 -3.7975,-1.7005 -3.7975,-3.7976 v -7.7924 -3.4078 c 0,-3.4237 -1.9865,-6.3848 -4.8694,-7.7925 -1.1469,-0.5601 -2.4358,-0.8745 -3.7976,-0.8745 v 4.8694 c 2.0968,0 3.7976,1.7005 3.7976,3.7976 v 4.3843 6.8159 c 0,2.4466 1.0143,4.6565 2.6447,6.2323 l 6e-4,5e-4 -6e-4,6e-4 c -1.6304,1.5758 -2.6447,3.7857 -2.6447,6.2322 v 6.8159 4.3844 c 0,2.0968 -1.7008,3.7976 -3.7976,3.7976 v 4.8693 c 1.3618,0 2.6507,-0.3143 3.7976,-0.8745 2.8829,-1.4077 4.8694,-4.3687 4.8694,-7.7924 v -3.4078 -7.7925 c 0,-2.097 1.7005,-3.7978 3.7975,-3.7978 l 0.2124,-9e-4 h 0.004 l 0.023,3e-4 h 0.004 0.004 2.0223 v -4.8688 h -2.0223 -0.004 -0.004 l -0.023,3e-4 h -0.004 l -0.2124,-0.001 z" />
    <path
       inkscape:connector-curvature="0"
       id="path853"
       style="fill:#2ec2e6;fill-opacity:1;fill-rule:evenodd;stroke:none"
       d="m 86.5468,132.7935 c 2.0971,0 3.7976,-1.7005 3.7976,-3.7973 v -7.7924 -3.4081 c 0,-3.424 1.9865,-6.3845 4.8694,-7.7927 1.1469,-0.5602 2.4358,-0.8742 3.7975,-0.8742 v 4.869 c -2.0967,0 -3.7975,1.7008 -3.7975,3.7979 v 4.3843 6.8162 c 0,2.446 -1.0143,4.6559 -2.6448,6.232 l -5e-4,6e-4 5e-4,5e-4 c 1.6305,1.5758 2.6448,3.786 2.6448,6.232 v 6.8159 4.3846 c 0,2.0971 1.7008,3.7976 3.7975,3.7976 v 4.8696 c -1.3617,0 -2.6506,-0.3146 -3.7975,-0.8747 -2.8829,-1.408 -4.8694,-4.3688 -4.8694,-7.7925 v -3.4078 -7.7927 c 0,-2.0968 -1.7005,-3.7976 -3.7976,-3.7976 l -0.2123,-6e-4 h -0.0039 l -0.023,3e-4 h -0.004 -0.0037 -2.0222 v -4.8693 h 2.0222 0.0037 0.004 l 0.023,3e-4 h 0.0039 z" />
    <path
       inkscape:connector-curvature="0"
       id="path859"
       style="fill:#003857;fill-opacity:1;fill-rule:evenodd;stroke:none"
       d="m 128.0996,150.3896 c 8.3594,-4.8969 11.1762,-15.6819 6.2802,-24.0415 -1.5115,-2.5801 -3.5839,-4.6324 -5.9729,-6.0925 l 1.823,-2.9707 c 2.8587,1.7504 5.3396,4.2106 7.1521,7.3046 5.8748,10.0298 2.5058,22.9272 -7.524,28.8022 -1.5543,0.9105 -3.1771,1.5988 -4.8323,2.0747 l -0.9603,-3.3468 c 1.3824,-0.3966 2.7374,-0.9706 4.0342,-1.73 z m -9.6364,-32.7121 c -2.7765,0.1151 -5.5644,0.8912 -8.1249,2.3907 -7.2317,4.2364 -10.3156,12.8792 -7.8457,20.5467 l -3.3143,1.0672 c -2.9684,-9.1916 0.7231,-19.533 9.4014,-24.6163 3.0702,-1.7986 6.4094,-2.7307 9.7336,-2.8707 z m 7.2839,6.9123 c -2.1174,-1.2946 -4.585,-1.9347 -7.0653,-1.8318 -1.1424,0.0474 -2.2876,0.252 -3.4027,0.6234 l -0.961,-2.8908 c 1.3876,-0.4626 2.812,-0.7186 4.2327,-0.7787 3.087,-0.1298 6.1566,0.6661 8.7911,2.2793 0.7362,0.451 1.4386,0.9655 2.0979,1.5418 l -2.0052,2.2947 c -0.5303,-0.4627 -1.095,-0.876 -1.6875,-1.2379 z m -18.4127,14.4657 c 0.2739,0.8493 0.6432,1.6818 1.1126,2.4829 0.6013,1.0261 1.3272,1.9349 2.1478,2.7181 l -2.1053,2.2034 c -1.019,-0.9745 -1.9216,-2.1053 -2.6696,-3.3823 -0.584,-0.9969 -1.0443,-2.0324 -1.3853,-3.0883 -1.247,-3.8617 -0.9006,-7.9983 0.8113,-11.5368 l 2.7436,1.3306 c -1.3745,2.8452 -1.6543,6.171 -0.6551,9.2724 z m 12.4807,-1.7484 c -0.491,0.7002 -0.5601,1.6503 -0.0998,2.4361 0.2554,0.4363 0.635,0.7549 1.0678,0.9377 0.2449,0.1032 0.5071,0.163 0.7733,0.1758 -0.2163,0.0901 -0.4354,0.1669 -0.6568,0.2304 -0.6165,0.1775 -1.2484,0.2529 -1.8728,0.2325 -0.8028,-0.0261 -1.5934,-0.2107 -2.3236,-0.5409 -0.6177,-0.2792 -1.1922,-0.6627 -1.6945,-1.1429 -0.4,-0.3824 -0.7541,-0.826 -1.0477,-1.3272 -0.2291,-0.3912 -0.4099,-0.7974 -0.5437,-1.2118 -0.4893,-1.5151 -0.3535,-3.1385 0.3183,-4.5269 0.5077,-1.05 1.3218,-1.9656 2.4032,-2.5991 0.3739,-0.2191 0.7617,-0.3938 1.1569,-0.5256 0.5445,-0.1814 1.1035,-0.2817 1.6608,-0.3053 1.2115,-0.051 2.4159,0.2614 3.4497,0.8944 0.2892,0.1768 0.5647,0.379 0.8235,0.6049 0.4822,0.4215 0.9054,0.9266 1.247,1.5094 0.3206,0.5477 0.5462,1.1245 0.6817,1.7122 0.4354,1.8892 -0.0618,3.8851 -1.3244,5.3489 0.1585,-0.568 0.0956,-1.1973 -0.2262,-1.7467 -0.6292,-1.0746 -2.0114,-1.4354 -3.086,-0.8059 -0.2889,0.1693 -0.5264,0.3926 -0.7067,0.65 z m 2.3006,8.0184 c -1.0624,0.3056 -2.1512,0.4357 -3.2275,0.4008 -1.3836,-0.0451 -2.7462,-0.3628 -4.0051,-0.932 -1.0644,-0.4814 -2.0548,-1.1427 -2.9203,-1.9701 -0.6894,-0.6591 -1.2997,-1.4239 -1.8054,-2.2876 -0.3948,-0.674 -0.7061,-1.3742 -0.9368,-2.0883 -0.8433,-2.6115 -0.6092,-5.409 0.5485,-7.802 0.8751,-1.8091 2.2779,-3.3872 4.142,-4.4791 0.6443,-0.3772 1.3121,-0.6783 1.9933,-0.9056 0.9383,-0.313 1.9018,-0.4862 2.8624,-0.5267 2.0878,-0.0879 4.1638,0.4504 5.9454,1.5415 0.4981,0.305 0.9732,0.6531 1.4188,1.0428 0.8311,0.7263 1.561,1.5971 2.1495,2.6017 0.5527,0.9434 0.9414,1.9377 1.1746,2.95 1.0044,4.3557 -0.8679,9.0408 -4.9283,11.4194 -0.7755,0.4541 -1.5854,0.7976 -2.4111,1.0352 z m 1.0925,-3.2868 c 3.0461,-1.7847 4.454,-5.3096 3.7023,-8.5816 -0.1749,-0.7611 -0.4666,-1.5086 -0.8816,-2.2173 -0.4422,-0.7545 -0.991,-1.4088 -1.6163,-1.9544 -0.3351,-0.2926 -0.6922,-0.5537 -1.0667,-0.7827 -1.3388,-0.8184 -2.8984,-1.2229 -4.4665,-1.1579 -0.7223,0.03 -1.4463,0.1595 -2.1512,0.394 -0.5123,0.1706 -1.0143,0.3965 -1.4984,0.68 -1.3992,0.8198 -2.4529,2.0064 -3.1102,3.3673 -0.8688,1.7986 -1.0457,3.9013 -0.4144,5.862 0.1732,0.5369 0.4067,1.0633 0.7032,1.5699 0.3802,0.6488 0.8394,1.2231 1.3581,1.7183 0.6506,0.6208 1.3949,1.1169 2.1952,1.4783 0.9456,0.4272 1.9695,0.6661 3.0087,0.7004 0.809,0.027 1.6273,-0.0703 2.4253,-0.299 0.6211,-0.178 1.2299,-0.436 1.8125,-0.7773 z m -4.4785,8.7126 c -2.0458,-0.0666 -4.0606,-0.5366 -5.9219,-1.3782 l 1.2592,-2.778 c 1.4958,0.6758 3.1153,1.0537 4.7588,1.1081 1.2796,0.0425 2.5741,-0.1114 3.8364,-0.4734 0.9822,-0.2818 1.9451,-0.6894 2.8664,-1.2291 4.8186,-2.8227 7.0458,-8.3985 5.8569,-13.5743 l 2.9693,-0.684 c 1.4848,6.4406 -1.2838,13.3685 -7.2873,16.8854 -1.1466,0.6716 -2.3439,1.1795 -3.5648,1.5308 -1.5713,0.4518 -3.1813,0.6443 -4.773,0.5927 z m -11.649,-2.8168 c 3.1595,3.0161 7.314,4.7095 11.5849,4.8509 l -0.1097,3.4844 c -5.1185,-0.1664 -10.0944,-2.1966 -13.8809,-5.817 z" />
  </g>
</svg>
